Coordinates
version=1
nRows=12
nColumns=33
inDegrees=yes

Units are S.I. units (second, meters, Newtons, ...)
Angles are in degrees.

endheader
time	ground_thorax_rot_x	ground_thorax_rot_y	ground_thorax_rot_z	ground_thorax_tx	ground_thorax_ty	ground_thorax_tz	clav_prot_r	clav_elev_r	scapula_abduction_r	scapula_elevation_r	scapula_upward_rot_r	scapula_winging_r	shoulder_elv_r	plane_of_elev_r	axial_rot_r	elbow_flexion_r	pro_sup_r	wrist_flex_r	wrist_dev_r	clav_prot_l	clav_elev_l	scapula_abduction_l	scapula_elevation_l	scapula_upward_rot_l	scapula_winging_l	shoulder_elv_l	plane_of_elev_l	axial_rot_l	elbow_flexion_l	pro_sup_l	wrist_flex_l	wrist_dev_l
      5.27000000	    -37.28079711	    -16.25631393	     24.37045201	   -252.29368607	    827.86307028	      6.37614491	      8.37456760	    -45.00000000	     36.97329803	    -45.00000000	    -43.63642944	   3135.63097979	  -3707.32258965	    146.40012160	   -112.82896386	   1820.28788042	     98.41145803	     11.99716567	      2.04588409	     13.37356853	     36.98835676	    -35.23032231	    -45.00000000	    -45.00000000	     86.85897547	     74.41957743	     23.34625661	    -39.92566889	   1099.06420577	     99.26487100	     -1.84626896	    -12.71345079
      5.28000000	    -37.34389522	    -16.21590016	     24.33042375	   -250.83897003	    828.00535446	      6.34928947	      8.12789011	    -45.00000000	     37.00049983	    -45.00000000	    -43.42783950	   3135.76232668	  -3707.30282080	    146.35286023	   -113.06135727	   1820.43855663	     98.97181116	     11.98408984	      1.98690198	     13.61167128	     37.05810802	    -35.43027867	    -45.00000000	    -45.00000000	     86.95011410	     74.35638153	     23.56554469	    -39.73572910	   1099.06760650	     99.99424505	     -1.88106325	    -12.72069914
      5.29000000	    -37.28807083	    -16.32081164	     24.47270048	   -249.27997177	    828.14366325	      6.33165998	      8.28954373	    -45.00000000	     37.12446764	    -45.00000000	    -43.18304780	   3135.75604089	  -3707.30717499	    146.28580058	   -113.26816386	   1820.49862618	     99.49267193	     11.98778263	      1.93332587	     13.48237527	     36.99232968	    -35.46092185	    -45.00000000	    -45.00000000	     86.87555217	     74.45676342	     23.64389620	    -39.43806904	   1099.19077058	    100.71893961	     -1.94911328	    -12.72593300
      5.30000000	    -37.23676314	    -16.43623137	     24.61889541	   -247.61467285	    828.26704688	      6.32426277	      8.29662036	    -45.00000000	     37.23466029	    -45.00000000	    -42.92419825	   3135.79159622	  -3707.29204000	    146.23673018	   -113.49965537	   1820.58818919	     99.98708617	     12.00611653	      1.86907961	     13.46360266	     36.97302989	    -35.51421549	    -45.00000000	    -45.00000000	     86.80554270	     74.52573445	     23.71654066	    -39.13667225	   1099.29206020	    101.44219997	     -2.01553000	    -12.73120405
      5.31000000	    -37.21719767	    -16.49121623	     24.70592818	   -245.84472433	    828.36343759	      6.32817719	      8.23905502	    -45.00000000	     37.32947722	    -45.00000000	    -42.57656507	   3135.87176018	  -3707.27330922	    146.22419237	   -113.69742591	   1820.67427292	    100.48593987	     12.03620640	      1.80309322	     13.57424740	     37.01787266	    -35.67599931	    -45.00000000	    -45.00000000	     86.81524911	     74.48824507	     23.86140953	    -38.85503621	   1099.39304343	    102.20757100	     -2.08105111	    -12.74370880
      5.32000000	    -37.15863544	    -16.60993401	     24.81138815	   -243.96970415	    828.42117538	      6.34347893	      8.14065931	    -45.00000000	     37.47699924	    -45.00000000	    -42.20301123	   3135.99339032	  -3707.21491053	    146.22168529	   -113.86674780	   1820.75486947	    100.98476497	     12.08531586	      1.73112141	     13.71976801	     37.08991062	    -35.85264872	    -45.00000000	    -45.00000000	     86.84944575	     74.37949167	     23.94503434	    -38.56354809	   1099.51641833	    103.01034365	     -2.14720799	    -12.74118038
      5.33000000	    -37.12294854	    -16.74524359	     24.97070934	   -241.98146041	    828.42931123	      6.37191070	      8.30473029	    -45.00000000	     37.58279498	    -45.00000000	    -41.89460290	   3135.99334249	  -3707.28506778	    146.13650147	   -114.00852254	   1820.81976832	    101.42228641	     12.13194777	      1.66494470	     13.56254816	     37.00568805	    -35.90627504	    -45.00000000	    -45.00000000	     86.71816886	     74.47960175	     24.01615365	    -38.23384327	   1099.61452070	    103.77898318	     -2.22755096	    -12.78913440
      5.34000000	    -37.07444040	    -16.84019612	     25.18123201	   -239.87422898	    828.37888884	      6.41132015	      7.88789962	    -45.00000000	     37.61493729	    -45.00000000	    -41.32053041	   3136.17337739	  -3707.17141700	    146.32552530	   -114.18522402	   1820.91138863	    101.90787738	     12.22519701	      1.57732113	     14.07112245	     37.26227808	    -36.23176357	    -45.00000000	    -45.00000000	     86.84131291	     74.25220308	     24.13905860	    -37.96364340	   1099.76179785	    104.66905676	     -2.28112480	    -12.73872087
      5.35000000	    -37.01083871	    -17.02364756	     25.38531721	   -237.65233702	    828.26450473	      6.45811190	      7.86375148	    -45.00000000	     37.74129994	    -45.00000000	    -40.90220254	   3136.26138306	  -3707.16599090	    146.32858778	   -114.24861657	   1820.97728911	    102.33166443	     12.30796992	      1.50191450	     14.13421828	     37.30182551	    -36.32452302	    -45.00000000	    -45.00000000	     86.77803801	     74.26651989	     24.22574462	    -37.67777457	   1099.87170539	    105.57070401	     -2.34985828	    -12.75517098
      5.36000000	    -36.95881467	    -17.19597916	     25.57726295	   -235.31985141	    828.08075987	      6.50676501	      7.83429548	    -45.00000000	     37.84771609	    -45.00000000	    -40.45818448	   3136.33869728	  -3707.18505172	    146.32073921	   -114.26367191	   1821.03832993	    102.70105314	     12.38619689	      1.43026015	     14.19838927	     37.33140036	    -36.47601936	    -45.00000000	    -45.00000000	     86.71985818	     74.24252814	     24.30914260	    -37.40545553	   1099.97893420	    106.45555661	     -2.41262201	    -12.76967734
      5.37000000	    -36.88968229	    -17.40383781	     25.82413684	   -232.87371981	    827.82031855	      6.55579422	      7.80406858	    -45.00000000	     37.95907332	    -45.00000000	    -40.05409377	   3136.42475907	  -3707.21225812	    146.32784264	   -114.28993354	   1821.10409362	    103.01948516	     12.47969884	      1.35681672	     14.26680735	     37.36144386	    -36.59396714	    -45.00000000	    -45.00000000	     86.65634180	     74.20767314	     24.41366274	    -37.13236412	   1100.09103547	    107.30602558	     -2.47649512	    -12.79585787
      5.38000000	    -36.82583447	    -17.65313175	     26.04016734	   -230.30858487	    827.47498881	      6.60363640	      7.97988568	    -45.00000000	     38.13480301	    -45.00000000	    -39.79853998	   3136.47704497	  -3707.31581566	    146.24682863	   -114.30943404	   1821.18246580	    103.25733050	     12.56288606	      1.28798711	     14.12092152	     37.27675091	    -36.61284054	    -45.00000000	    -45.00000000	     86.57050261	     74.21177432	     24.54456384	    -36.85014808	   1100.18911920	    108.05283679	     -2.55364196	    -12.88394177
